<svg version="1.2" xmlns="http://www.w3.org/2000/svg" viewBox="0 0 1024 1024" width="1024" height="1024">
	<title>Proyecto nuevo</title>
	<style>
		.s0 { fill: #512da8 } 
		.s1 { fill: #ffffff } 
	</style>
	<path id="Forma 2" class="s0" d="m0 33c0-18.2 14.8-33 33-33h958c18.2 0 33 14.8 33 33v958c0 18.2-14.8 33-33 33h-958c-18.2 0-33-14.8-33-33z"/>
	<path id="EsJS " class="s1" aria-label="EsJS
"  d="m283.7 924h186.8v-48.2h-128.4v-66h118.2v-48.1h-118.2v-65.9h127.8v-48.2h-186.2zm404.2-148.1c-5.2-38.2-35.9-61.8-88.3-61.8-53 0-88 24.5-87.8 64.5-0.2 31 19.4 51.1 59.9 59.2l35.9 7.2c18.1 3.6 26.3 10.2 26.6 20.6-0.3 12.3-13.7 21.1-33.8 21.1-20.5 0-34.1-8.8-37.6-25.7l-56.6 3c5.4 39.7 39.2 64.1 94.1 64.1 53.7 0 92.2-27.4 92.3-68.3-0.1-30-19.7-47.9-59.9-56.1l-37.5-7.6c-19.3-4.2-26.5-10.8-26.4-20.8-0.1-12.4 13.9-20.5 31.8-20.5 19.9 0 31.8 10.9 34.6 24.3zm89 2.7v101.4c-0.1 14-6.3 21.4-17.7 21.4-10.7 0-17.7-6.7-17.9-18.2h-30.6c-0.1 29 20.6 42.9 47 42.9 29.4 0 49.5-17.9 49.6-46.1v-101.4zm134.7 41.9h29.4c-0.4-26-21.7-43.9-54.1-43.9-31.9 0-55.2 17.6-55.1 44.1-0.1 21.4 15.1 33.7 39.6 39.6l15.9 4c15.8 3.8 24.6 8.4 24.7 18.2-0.1 10.6-10.2 17.9-25.8 17.9-16 0-27.5-7.4-28.5-22h-29.7c0.7 31.5 23.3 47.7 58.6 47.7 35.5 0 56.3-16.9 56.4-43.6-0.1-24.2-18.3-37-43.6-42.7l-13.1-3.2c-12.6-2.9-23.2-7.6-23-18 0-9.4 8.3-16.3 23.4-16.3 14.7 0 23.7 6.7 24.9 18.2z"/>
</svg>